<?xml version="1.0" encoding="utf-8" ?><svg xmlns="http://www.w3.org/2000/svg" xmlns:xlink="http://www.w3.org/1999/xlink" width="1024" height="1024" viewBox="0 0 1024 1024"><path transform="scale(2 2)" d="M170.973 114.05L170.958 98.8679C170.957 81.6008 175.518 77.4501 192.363 74.6308C211.386 71.4467 230.72 70.1796 250.019 70.2407C266.865 70.2301 334.636 68.4285 340.398 87.7697C341.756 92.3267 341.071 108.551 341.062 114.05C348.834 116.175 353.661 125.988 351.782 133.645C350.12 140.411 345.309 144.534 339.552 148.001C340.78 155.54 345.597 162.785 350.742 168.23C375.4 194.325 377.468 217.629 378.786 252.624C380.163 289.198 380.43 326.248 377.756 362.769C375.375 395.278 368.787 420.558 334.138 433.579C318.946 439.281 280.163 440.61 263.562 440.859C238.617 440.898 208.196 440.592 184.297 435.858C161.649 431.371 139.612 408.431 136.247 385.215C130.267 343.948 131.112 287.623 133.822 246.711C135.509 221.232 137.094 197.33 154.086 176.812C161.493 167.869 169.162 159.701 172.056 148.001C157.161 140.535 155.813 121.722 170.973 114.05ZM248.814 82.3622C233.416 82.8599 212.645 83.6978 197.53 86.7294C220.298 90.4429 240.644 91.0848 263.562 91.0561C280.258 90.0538 297.421 90.1764 313.869 86.7294C293.76 82.6846 269.212 82.3069 248.814 82.3622ZM328.823 96.544C278.879 105.291 233.789 105.846 183.518 96.544C183.5 100.871 181.679 113.812 185.479 114.751C230.527 125.818 283.801 125.868 328.823 114.05C328.825 112.353 329.029 97.1105 328.823 96.544ZM335.491 125.064L335.194 125.127C332.303 125.764 329.455 126.883 326.588 127.669C286.975 138.532 225.514 137.05 186.888 128.152C184.206 127.534 179.78 125.867 177.017 125.616C172.133 125.172 171.047 133.053 176.834 136.103C182.614 138.279 193.187 140.185 199.493 141.183C237.979 147.191 297.02 148.421 334.806 136.128C340.833 134.167 341.057 125.879 335.491 125.064ZM184.401 150.998C180.24 166.467 172.414 174 162.815 185.51C146.586 204.97 146.589 238.056 145.425 262.363C143.699 298.412 142.758 347.426 148.318 383.465C152.021 401.862 168.675 419.542 187.044 423.825C195.757 426.24 204.843 426.23 213.778 427.027C244.218 429.74 298.333 430.731 328.823 422.817C367.958 404.875 365.318 378.416 366.648 339.722C367.788 306.541 367.488 273.6 365.89 240.46C364.757 216.976 361.626 199.305 345.923 181.329C336.84 170.93 331.078 164.62 327.591 150.998C280.461 160.379 231.486 160.598 184.401 150.998Z"/><path transform="scale(2 2)" d="M252.375 340.312L205.593 340.318C181.649 340.319 156.36 342.348 156.235 308.884L156.239 273.376C156.201 245.171 156.243 227.689 189.479 227.699L259.377 227.707L307.221 227.7C332.954 227.698 355.674 224.717 355.757 260.125L355.757 293.693C355.798 323.018 354.866 340.328 320.477 340.324L252.375 340.312ZM321.393 240.241L195.716 240.237C183.544 240.239 168.747 238.023 168.639 255.698C168.525 274.131 168.464 292.447 168.64 310.867C168.763 325.125 178.116 328.362 190.875 328.245L314.176 328.253C345.784 328.262 343.193 321.836 343.174 295.38L343.189 260.452C343.082 243.546 338.347 239.256 321.393 240.241Z"/><path transform="scale(2 2)" d="M195.226 308.474C191.681 308.047 183.169 304.893 186.329 299.969C189.121 295.936 193.521 302.765 197.107 301.508C200.139 300.444 201.871 296.086 200.982 293.131C199.692 288.849 195.336 287.323 191.877 285.267C182.933 279.951 185.565 263.944 198.623 261.553C202.402 261.158 207.782 261.603 208.716 265.931C210.045 272.093 198.188 265.107 194.349 271.08C189.165 279.07 198.818 281.368 203.873 284.915C211.822 290.493 208.349 307.45 195.226 308.474Z"/><path transform="scale(2 2)" d="M256.815 302.636C240.524 304.457 244.161 281.121 244.887 271.103C245.157 267.377 244.925 264.01 248.814 262.737C257.424 261.883 246.093 285.478 253.45 296.098C256.508 296.927 264.138 299.307 256.815 302.636Z"/><path transform="scale(2 2)" d="M282.274 283.833C282.172 279.291 282.479 266.013 286.171 262.737C293.328 262.211 289.984 269 289.675 273.286C289.101 281.243 288.092 292.843 291.492 300.116C300.63 306.813 290.574 311.825 283.596 301.529C281.872 302.786 280.899 303.463 279.043 304.484C256.047 311.267 263.739 276.277 282.274 283.833ZM276.058 289.745C271.096 292.173 267.626 300.359 276.058 298.383C278.297 297.138 279.54 296.112 281.307 294.264C280.401 290.982 279.764 289.788 276.058 289.745Z"/><path transform="scale(2 2)" d="M312.969 304.893C306.022 306.578 299.03 302.287 297.387 295.329C295.744 288.372 300.078 281.406 307.045 279.806C313.953 278.22 320.845 282.508 322.474 289.405C324.103 296.303 319.857 303.222 312.969 304.893ZM307.829 286.248C299.631 290.306 302.791 298.952 311.743 298.383C321.123 293.995 315.993 285.958 307.829 286.248Z"/><path transform="scale(2 2)" d="M226.826 302.636C210.364 317.517 203.922 285.078 223.846 281.296C231.743 281.406 230.661 288.683 231.153 294.204C231.548 298.645 233.839 298.872 236.892 301.254C241.125 304.556 234.261 310.888 226.826 302.636ZM223.846 287.447C220.672 289.626 215.773 295.46 218.79 299.28C225.945 299.326 225.459 289.116 223.846 287.447Z"/></svg>